<svg width="31" height="29" viewBox="0 0 31 29" fill="none" xmlns="http://www.w3.org/2000/svg">
<path d="M10.5726 9.16155L2.52444 10.2289L2.38189 10.2554C2.1661 10.3078 1.96938 10.4116 1.81182 10.5563C1.65426 10.701 1.5415 10.8813 1.48506 11.0789C1.42863 11.2765 1.43053 11.4843 1.49057 11.6809C1.55062 11.8776 1.66666 12.0562 1.82684 12.1985L7.65735 17.3896L6.28235 24.7223L6.26595 24.8492C6.25274 25.0534 6.29908 25.2571 6.40023 25.4394C6.50138 25.6218 6.65371 25.7763 6.8416 25.8871C7.0295 25.998 7.24622 26.0611 7.46958 26.0701C7.69293 26.0792 7.9149 26.0337 8.11274 25.9385L15.3107 22.4769L22.4922 25.9385L22.6184 25.9916C22.8266 26.0666 23.0529 26.0896 23.274 26.0582C23.4952 26.0268 23.7032 25.9422 23.8768 25.813C24.0504 25.6838 24.1833 25.5147 24.2618 25.3231C24.3404 25.1314 24.3618 24.9241 24.3239 24.7223L22.9476 17.3896L28.7806 12.1973L28.879 12.0992C29.0196 11.9409 29.1117 11.7513 29.1461 11.5498C29.1805 11.3482 29.1558 11.142 29.0747 10.952C28.9935 10.762 28.8587 10.5951 28.6841 10.4683C28.5095 10.3415 28.3012 10.2592 28.0805 10.23L20.0323 9.16155L16.4346 2.49232C16.3305 2.29909 16.1694 2.13638 15.9694 2.0226C15.7694 1.90881 15.5386 1.84851 15.3031 1.84851C15.0676 1.84851 14.8368 1.90881 14.6368 2.0226C14.4368 2.13638 14.2757 2.29909 14.1716 2.49232L10.5726 9.16155Z" fill="#FFF140"/>
</svg>
